<svg xmlns="http://www.w3.org/2000/svg" viewBox="0 0 500 500" width="500" height="500">
  <defs>
    <linearGradient id="tealGradient" x1="0%" y1="0%" x2="100%" y2="100%">
      <stop offset="0%" style="stop-color:#2A9D8F;stop-opacity:1" />
      <stop offset="100%" style="stop-color:#17665C;stop-opacity:1" />
    </linearGradient>
    <linearGradient id="scanLight" x1="0%" y1="0%" x2="100%" y2="0%">
      <stop offset="0%" style="stop-color:#E76F51;stop-opacity:0" />
      <stop offset="50%" style="stop-color:#E76F51;stop-opacity:1" />
      <stop offset="100%" style="stop-color:#E76F51;stop-opacity:0" />
    </linearGradient>
    <filter id="glow">
      <feGaussianBlur stdDeviation="2.5" result="coloredBlur"/>
      <feMerge>
        <feMergeNode in="coloredBlur"/>
        <feMergeNode in="SourceGraphic"/>
      </feMerge>
    </filter>
  </defs>

  <circle cx="250" cy="220" r="200" fill="#f8f9fa" />

  <g transform="translate(250, 220)" opacity="0.4">
     <circle cx="0" cy="0" r="160" fill="none" stroke="#264653" stroke-width="1" stroke-dasharray="10,10"/>
     <circle cx="0" cy="0" r="180" fill="none" stroke="#2A9D8F" stroke-width="2" />
     <circle cx="127" cy="127" r="6" fill="#2A9D8F" />
     <circle cx="-127" cy="-127" r="6" fill="#2A9D8F" />
     <circle cx="127" cy="-127" r="6" fill="#2A9D8F" />
     <circle cx="-127" cy="127" r="6" fill="#2A9D8F" />
     <circle cx="180" cy="0" r="8" fill="#E76F51" />
     <circle cx="-180" cy="0" r="8" fill="#E76F51" />
  </g>

  <g transform="translate(360, 100)">
    <circle cx="0" cy="0" r="25" fill="#2A9D8F" />
    <path d="M-25,0 L25,0 M0,-25 L0,25 M-15,-18 C-5,-5 5,-5 15,-18 M-15,18 C-5,5 5,5 15,18" stroke="white" stroke-width="2" fill="none"/>
  </g>

  <g transform="translate(250, 220)">
    <circle cx="0" cy="0" r="110" fill="white" stroke="#264653" stroke-width="2" />
    
    <path d="M-10,110 C-60,110 -90,70 -90,0 C-90,-60 -50,-90 -10,-90 C20,-90 40,-75 40,-60 L40,-50 C40,-50 35,-50 35,-45 C35,-35 45,-35 50,-35 C60,-35 70,-20 70,0 C70,10 75,15 70,25 C65,30 50,30 50,40 C50,55 40,70 20,80 C10,85 0,110 -10,110 Z" fill="url(#tealGradient)" />

    <rect x="-100" y="-20" width="200" height="5" fill="url(#scanLight)" filter="url(#glow)" opacity="0.9" />
    <rect x="-100" y="10" width="200" height="2" fill="url(#scanLight)" opacity="0.6" />
    
    <path d="M-20,-40 L20,-40 M-30,-20 L30,-20 M-30,20 L30,20 M-20,40 L10,40" stroke="white" stroke-width="1" opacity="0.3" stroke-dasharray="2,2"/>
  </g>

  <text x="250" y="420" text-anchor="middle" font-family="'Segoe UI', Arial, sans-serif" font-weight="bold" font-size="52" fill="#264653">
    SiM <tspan fill="#E76F51">CAUTELAR</tspan>
  </text>
  <text x="250" y="460" text-anchor="middle" font-family="'Segoe UI', Arial, sans-serif" font-size="18" fill="#2A9D8F" letter-spacing="4">
    TRIBUNAL DE JUSTIÇA - PB
  </text>
</svg>